<svg width="18" height="17" viewBox="0 0 18 17" fill="none" xmlns="http://www.w3.org/2000/svg">
<path d="M17.6275 8.36072L9.4491 0.186175C9.39021 0.127158 9.32027 0.0803364 9.24327 0.0483901C9.16627 0.0164437 9.08373 0 9.00037 0C8.91701 0 8.83447 0.0164437 8.75747 0.0483901C8.68047 0.0803364 8.61053 0.127158 8.55164 0.186175L0.373278 8.36072C0.135015 8.59905 0 8.92277 0 9.2604C0 9.96147 0.569845 10.5315 1.27073 10.5315H2.13245V16.3645C2.13245 16.716 2.41638 17 2.76782 17H7.72964V12.5513H9.95342V17H15.2329C15.5844 17 15.8683 16.716 15.8683 16.3645V10.5315H16.73C17.0675 10.5315 17.3912 10.3984 17.6294 10.1581C18.1238 9.66158 18.1238 8.85723 17.6275 8.36072Z" fill="white"/>
</svg>
