<svg width="27" height="19" viewBox="0 0 27 19" fill="none" xmlns="http://www.w3.org/2000/svg">
<path d="M26.2921 1.17123C26.2921 0.862535 26.1488 0.566481 25.8936 0.348199C25.6385 0.129917 25.2924 0.00728764 24.9315 0.00728764C24.8622 0.00728764 24.7955 0.0161371 24.7286 0.0247261V0H1.36061V0.00728764C0.999754 0.00728764 0.653677 0.129917 0.398513 0.348199C0.143349 0.566481 0 0.862535 0 1.17123V17.9589H0.0152126C0.0918838 18.5396 0.661137 18.9927 1.36031 18.9927V19H24.7283V18.9753C24.7949 18.9839 24.8616 18.9927 24.9312 18.9927C25.6307 18.9927 26.2 18.5398 26.2766 17.9589H26.3004V1.17123H26.2921ZM23.2712 16.4085H19.9668C19.9556 16.3684 19.9387 16.3298 19.9163 16.2934L19.9217 16.2908L13.0095 6.04903L13.0067 6.05033C12.9305 5.91485 12.8111 5.80051 12.6624 5.7204C12.5137 5.6403 12.3415 5.59769 12.1658 5.59745C11.9852 5.59765 11.8085 5.64249 11.657 5.72657C11.5054 5.81066 11.3856 5.93041 11.3117 6.07141L6.71177 12.8869L5.58544 11.2183L5.58392 11.2191C5.54376 11.1477 5.48086 11.0873 5.40245 11.0451C5.32405 11.0028 5.2333 10.9803 5.14062 10.9802C4.94012 10.9802 4.76822 11.083 4.69064 11.2295L3.02943 13.6909V2.59884H23.2712V16.4085Z" fill="white"/>
<path d="M18.664 9.15748C20.3611 9.15748 21.7369 7.98054 21.7369 6.52872C21.7369 5.07689 20.3611 3.89995 18.664 3.89995C16.9669 3.89995 15.5911 5.07689 15.5911 6.52872C15.5911 7.98054 16.9669 9.15748 18.664 9.15748Z" fill="white"/>
</svg>
