<svg width="20" height="20" viewBox="0 0 20 20" fill="none" xmlns="http://www.w3.org/2000/svg">
<path d="M19.25 7.5H15V0.9375C15 0.419531 14.6644 0 14.25 0H9.75C9.33562 0 9 0.419531 9 0.9375V3.75H7V0.625C7 0.279687 6.77625 0 6.5 0H6C5.72375 0 5.5 0.279687 5.5 0.625V3.75H3.5V0.625C3.5 0.279687 3.27625 0 3 0H2.5C2.22375 0 2 0.279687 2 0.625V3.75H0.75C0.335625 3.75 0 4.16953 0 4.6875V18.75C0 19.4402 0.447812 20 1 20H19C19.5522 20 20 19.4402 20 18.75V8.4375C20 7.91953 19.6641 7.5 19.25 7.5ZM4 15.7812C4 16.0402 3.83219 16.25 3.625 16.25H2.375C2.16781 16.25 2 16.0402 2 15.7812V14.2188C2 13.9598 2.16781 13.75 2.375 13.75H3.625C3.83219 13.75 4 13.9598 4 14.2188V15.7812ZM4 12.0312C4 12.2902 3.83219 12.5 3.625 12.5H2.375C2.16781 12.5 2 12.2902 2 12.0312V10.4688C2 10.2098 2.16781 10 2.375 10H3.625C3.83219 10 4 10.2098 4 10.4688V12.0312ZM4 8.28125C4 8.54023 3.83219 8.75 3.625 8.75H2.375C2.16781 8.75 2 8.54023 2 8.28125V6.71875C2 6.45977 2.16781 6.25 2.375 6.25H3.625C3.83219 6.25 4 6.45977 4 6.71875V8.28125ZM8 15.7812C8 16.0402 7.83219 16.25 7.625 16.25H6.375C6.16781 16.25 6 16.0402 6 15.7812V14.2188C6 13.9598 6.16781 13.75 6.375 13.75H7.625C7.83219 13.75 8 13.9598 8 14.2188V15.7812ZM8 12.0312C8 12.2902 7.83219 12.5 7.625 12.5H6.375C6.16781 12.5 6 12.2902 6 12.0312V10.4688C6 10.2098 6.16781 10 6.375 10H7.625C7.83219 10 8 10.2098 8 10.4688V12.0312ZM8 8.28125C8 8.54023 7.83219 8.75 7.625 8.75H6.375C6.16781 8.75 6 8.54023 6 8.28125V6.71875C6 6.45977 6.16781 6.25 6.375 6.25H7.625C7.83219 6.25 8 6.45977 8 6.71875V8.28125ZM13 12.0312C13 12.2902 12.8322 12.5 12.625 12.5H11.375C11.1678 12.5 11 12.2902 11 12.0312V10.4688C11 10.2098 11.1678 10 11.375 10H12.625C12.8322 10 13 10.2098 13 10.4688V12.0312ZM13 8.28125C13 8.54023 12.8322 8.75 12.625 8.75H11.375C11.1678 8.75 11 8.54023 11 8.28125V6.71875C11 6.45977 11.1678 6.25 11.375 6.25H12.625C12.8322 6.25 13 6.45977 13 6.71875V8.28125ZM13 4.53125C13 4.79023 12.8322 5 12.625 5H11.375C11.1678 5 11 4.79023 11 4.53125V2.96875C11 2.70977 11.1678 2.5 11.375 2.5H12.625C12.8322 2.5 13 2.70977 13 2.96875V4.53125ZM18 15.7812C18 16.0402 17.8322 16.25 17.625 16.25H16.375C16.1678 16.25 16 16.0402 16 15.7812V14.2188C16 13.9598 16.1678 13.75 16.375 13.75H17.625C17.8322 13.75 18 13.9598 18 14.2188V15.7812ZM18 12.0312C18 12.2902 17.8322 12.5 17.625 12.5H16.375C16.1678 12.5 16 12.2902 16 12.0312V10.4688C16 10.2098 16.1678 10 16.375 10H17.625C17.8322 10 18 10.2098 18 10.4688V12.0312Z" fill="white"/>
</svg>
