<svg width="20" height="20" viewBox="0 0 20 20" fill="none" xmlns="http://www.w3.org/2000/svg">
<path d="M19.98 1.05644C19.9438 0.878169 19.8616 0.708341 19.7388 0.558404C19.616 0.408467 19.4556 0.281906 19.2682 0.187254C19.0808 0.0926017 18.871 0.0320588 18.6527 0.00970665C18.4345 -0.0126455 18.213 0.00371274 18.0031 0.0576784L7.23385 2.8226C6.92071 2.90293 6.64701 3.06342 6.45272 3.28062C6.25843 3.49783 6.15371 3.76038 6.15385 4.02996V14.3109C5.46071 13.8837 4.61235 13.6613 3.74623 13.6798C2.8801 13.6983 2.04694 13.9566 1.38174 14.4128C0.716549 14.869 0.258283 15.4964 0.0811972 16.1934C-0.0958891 16.8903 0.0185785 17.616 0.406054 18.2528C0.793529 18.8897 1.43131 19.4003 2.21607 19.7021C3.00082 20.0038 3.88658 20.079 4.72982 19.9154C5.57307 19.7519 6.3244 19.3591 6.86208 18.8008C7.39977 18.2425 7.69231 17.5514 7.69231 16.8394V7.82272L18.4615 5.05653V11.7824C17.7684 11.3552 16.92 11.1328 16.0539 11.1513C15.1878 11.1698 14.3546 11.4281 13.6894 11.8843C13.0242 12.3405 12.566 12.9679 12.3889 13.6649C12.2118 14.3618 12.3263 15.0875 12.7137 15.7243C13.1012 16.3612 13.739 16.8718 14.5238 17.1736C15.3085 17.4753 16.1943 17.5505 17.0375 17.3869C17.8808 17.2234 18.6321 16.8306 19.1698 16.2723C19.7075 15.714 20 15.0229 20 14.3109V1.26378C20 1.19298 19.9923 1.12471 19.98 1.05644Z" fill="white"/>
</svg>
