<svg width="20" height="20" viewBox="0 0 20 20" fill="none" xmlns="http://www.w3.org/2000/svg">
<path d="M19.6381 1.52432L18.4778 0.36604C17.9895 -0.122274 17.1988 -0.121883 16.7105 0.36643L14.904 2.17788C14.7526 2.32929 14.6365 2.5102 14.5681 2.71541L14.0919 4.14168L11.1138 7.12156C10.6411 6.77779 10.1176 6.50433 9.5472 6.37151C8.24238 6.07071 6.92974 6.34026 6.03511 7.23094C5.6757 7.59815 5.40223 8.0474 5.24597 8.53962C5.01156 9.26233 4.33962 9.81705 3.59891 9.88346C2.67616 9.97721 1.81161 10.3327 1.15256 10.9968C-0.629661 12.7743 -0.307752 15.9776 1.86045 18.1457C4.02357 20.3091 7.22821 20.6267 9.00574 18.8489C9.63471 18.1895 10.0312 17.3312 10.1191 16.3987C10.1875 15.6663 10.738 14.9861 11.4658 14.7517C11.9541 14.6004 12.4045 14.3271 12.7706 13.9607C13.664 13.0669 13.9328 11.7582 13.5949 10.4542C13.4631 9.88268 13.189 9.36077 12.8472 8.8873L15.826 5.9082L17.2531 5.43278C17.4556 5.36321 17.6395 5.24845 17.7911 5.09721L19.6022 3.28889C20.1265 2.80175 20.1265 2.01263 19.6381 1.52432ZM8.12518 13.7509C7.08991 13.7509 6.24998 12.911 6.24998 11.8758C6.24998 10.8406 7.08991 10.0007 8.12518 10.0007C9.16044 10.0007 9.96522 10.8406 9.96522 11.8758C10.0004 12.911 9.16044 13.7509 8.12518 13.7509Z" fill="white"/>
</svg>
