<svg width="24" height="17" viewBox="0 0 24 17" fill="none" xmlns="http://www.w3.org/2000/svg">
<path d="M24 14.875V2.125C24 0.949167 23.0547 0 21.8836 0H2.1164C0.945326 0 0 0.949167 0 2.125V14.875C0 16.0508 0.945326 17 2.1164 17H21.8836C23.0547 17 24 16.0508 24 14.875ZM22.1517 1.96917C22.6173 2.43667 22.3633 2.91833 22.1093 3.15917L16.381 8.42917L21.8836 14.1808C22.0529 14.3792 22.1658 14.6908 21.9683 14.9033C21.7848 15.13 21.3616 15.1158 21.1781 14.9742L15.0123 9.69L11.9929 12.4525L8.98765 9.69L2.82187 14.9742C2.63845 15.1158 2.21517 15.13 2.03175 14.9033C1.83422 14.6908 1.94709 14.3792 2.1164 14.1808L7.61905 8.42917L1.89065 3.15917C1.63668 2.91833 1.38272 2.43667 1.84832 1.96917C2.31393 1.50167 2.79365 1.72833 3.18871 2.06833L11.9929 9.20833L20.8113 2.06833C21.2063 1.72833 21.6861 1.50167 22.1517 1.96917Z" fill="white"/>
</svg>
