<svg width="20" height="20" viewBox="0 0 20 20" fill="none" xmlns="http://www.w3.org/2000/svg">
<path d="M19.0677 3.16019L16.4828 0.57767C16.3004 0.394523 16.0837 0.249209 15.845 0.150074C15.6063 0.0509392 15.3504 -6.19408e-05 15.092 5.64551e-08C14.5653 5.64551e-08 14.0702 0.206311 13.6988 0.57767L10.9173 3.35922C10.7342 3.54157 10.5889 3.7583 10.4897 3.99698C10.3906 4.23565 10.3396 4.49156 10.3397 4.75C10.3397 5.2767 10.546 5.77184 10.9173 6.1432L12.9513 8.17718C12.4752 9.2266 11.8132 10.1813 10.9974 10.9951C10.1836 11.813 9.22906 12.4773 8.17949 12.9563L6.14554 10.9223C5.9632 10.7392 5.74647 10.5939 5.5078 10.4947C5.26913 10.3956 5.01322 10.3446 4.75478 10.3447C4.22809 10.3447 3.73295 10.551 3.3616 10.9223L0.577663 13.7015C0.394294 13.8841 0.248856 14.1013 0.149719 14.3404C0.0505807 14.5795 -0.00030077 14.8358 1.33745e-06 15.0947C1.33745e-06 15.6214 0.206309 16.1165 0.577663 16.4879L3.15772 19.068C3.74995 19.6626 4.56789 20 5.40769 20C5.58487 20 5.75477 19.9854 5.92224 19.9563C9.19404 19.4175 12.4391 17.6772 15.058 15.0607C17.6745 12.4466 19.4123 9.20388 19.9584 5.92233C20.1235 4.9199 19.791 3.88835 19.0677 3.16019Z" fill="white"/>
</svg>
