<svg width="16" height="17" viewBox="0 0 16 17" fill="none" xmlns="http://www.w3.org/2000/svg">
<path d="M7.86667 17C9.33333 17 10.5333 16.0438 10.5333 14.875H5.2C5.2 16.0438 6.4 17 7.86667 17ZM13.2 8.2875V5.84375C13.2 3.93125 11.6 2.23125 9.2 1.7C9.33333 1.4875 9.33333 1.275 9.46667 1.16875C9.33333 0.53125 8.66667 0 7.86667 0C7.06667 0 6.4 0.53125 6.4 1.16875C6.4 1.38125 6.53333 1.59375 6.66667 1.7C4.26667 2.125 2.66667 3.825 2.66667 5.84375V8.18125C2.53333 9.45625 1.46667 10.625 0 11.1562V13.8125H16V11.1562C14.4 10.7312 13.3333 9.5625 13.2 8.2875Z" fill="white"/>
</svg>
