<?xml version="1.0" standalone="no"?>
<!DOCTYPE svg PUBLIC "-//W3C//DTD SVG 20010904//EN"
 "http://www.w3.org/TR/2001/REC-SVG-20010904/DTD/svg10.dtd">
<svg version="1.0" xmlns="http://www.w3.org/2000/svg"
 width="104.000000pt" height="69.000000pt" viewBox="0 0 104.000000 69.000000"
 preserveAspectRatio="xMidYMid meet">

<g transform="translate(0.000000,69.000000) scale(0.100000,-0.100000)"
fill="#000000" stroke="none">
<path d="M643 625 c-29 -20 -56 -96 -51 -140 4 -32 0 -39 -44 -75 -104 -88
-80 -197 50 -225 30 -6 32 -9 32 -49 0 -50 -13 -66 -55 -66 -27 1 -28 2 -12
14 36 27 7 78 -32 56 -46 -24 -10 -80 52 -80 48 0 72 33 62 88 -5 34 -3 40 19
51 31 17 50 62 42 97 -5 18 -19 31 -46 42 -50 21 -51 43 -5 111 38 58 50 104
41 156 -8 38 -20 43 -53 20z m33 -50 c8 -21 -13 -68 -42 -96 l-24 -22 0 34 c0
36 32 99 50 99 6 0 13 -7 16 -15z m-73 -205 c3 -13 -3 -24 -19 -35 -13 -8 -26
-26 -30 -39 -6 -27 10 -66 28 -66 9 0 9 3 0 12 -17 17 -15 34 5 54 16 15 17
15 24 -2 4 -11 8 -36 8 -58 l1 -39 -36 6 c-82 14 -99 79 -38 147 41 45 50 48
57 20z m73 -106 c4 -17 1 -31 -11 -44 -25 -28 -35 -16 -35 41 0 47 1 49 20 39
11 -6 23 -22 26 -36z"/>
<path d="M379 479 c-30 -39 -62 -84 -72 -100 -11 -16 -22 -29 -27 -29 -7 0
-52 94 -65 138 -5 16 -13 22 -28 20 -18 -3 -25 -19 -47 -103 -26 -97 -28 -100
-60 -106 -29 -6 -49 -23 -50 -41 0 -17 35 -38 64 -38 42 0 56 16 56 65 0 22 9
72 19 110 18 69 19 70 30 40 38 -101 66 -141 86 -127 6 4 35 40 65 81 30 41
56 69 57 64 2 -6 0 -44 -5 -84 -11 -86 -5 -138 15 -146 22 -9 39 13 23 31 -9
12 -10 43 -5 128 4 62 11 120 16 129 6 11 4 21 -5 28 -10 9 -25 -4 -67 -60z"/>
<path d="M845 509 c-111 -34 -100 -127 18 -160 23 -7 48 -18 56 -25 33 -30
-59 -82 -125 -71 -36 6 -56 -9 -33 -25 21 -14 102 -4 145 19 22 11 46 31 54
46 13 23 13 28 -4 46 -11 12 -43 29 -73 38 -96 30 -108 73 -26 102 45 16 93 8
93 -15 0 -23 24 -11 28 14 6 37 -63 52 -133 31z"/>
</g>
</svg>
