<svg width="15" height="15" viewBox="0 0 15 15" fill="none" xmlns="http://www.w3.org/2000/svg">
<path fill-rule="evenodd" clip-rule="evenodd" d="M10.7438 9.67385L14.7786 13.7088C14.9204 13.8507 15.0001 14.0431 15 14.2438C14.9999 14.4444 14.9202 14.6368 14.7782 14.7786C14.6363 14.9204 14.4439 15.0001 14.2433 15C14.0426 14.9999 13.8502 14.9202 13.7084 14.7782L9.67361 10.7433C8.46745 11.6776 6.95069 12.1172 5.4319 11.9728C3.91311 11.8284 2.50637 11.1108 1.49785 9.96605C0.489335 8.82126 -0.0451967 7.33526 0.00299711 5.81034C0.0511909 4.28543 0.67849 2.83614 1.75728 1.75732C2.83607 0.678507 4.28532 0.0511922 5.8102 0.00299718C7.33508 -0.0451978 8.82104 0.489347 9.9658 1.49789C11.1106 2.50643 11.8281 3.91321 11.9725 5.43204C12.1169 6.95087 11.6773 8.46766 10.7431 9.67385H10.7438ZM6.00028 10.4996C7.1937 10.4996 8.33824 10.0255 9.18211 9.18159C10.026 8.3377 10.5001 7.19313 10.5001 5.99968C10.5001 4.80623 10.026 3.66166 9.18211 2.81777C8.33824 1.97387 7.1937 1.49978 6.00028 1.49978C4.80686 1.49978 3.66232 1.97387 2.81845 2.81777C1.97457 3.66166 1.50049 4.80623 1.50049 5.99968C1.50049 7.19313 1.97457 8.3377 2.81845 9.18159C3.66232 10.0255 4.80686 10.4996 6.00028 10.4996Z" fill="white"/>
</svg>
